<?xml version="1.0" encoding="utf-8"?>
<!DOCTYPE svg PUBLIC "-//W3C//DTD SVG 1.0//EN" "http://www.w3.org/TR/2001/REC-SVG-20010904/DTD/svg10.dtd">
<svg version="1.0" xmlns="http://www.w3.org/2000/svg" width="368px" height="346px" viewBox="0 0 368 346" preserveAspectRatio="xMidYMid meet">
 <g fill="#fffffe">
  <path d="M0 172.85 l0 -172.85 184 0 184 0 0 172.85 0 172.85 -184 0 -184 0 0 -172.85z m159.43 110.47 c6.66 -1.08 9.10 -1.74 14.81 -4.04 2.72 -1.12 7.77 -3.83 10.28 -5.54 5.58 -3.76 12.51 -10.94 16.10 -16.73 1.57 -2.51 4.77 -9.30 5.82 -12.37 2.30 -6.87 3.59 -17.15 3 -24.15 -2.33 -27.08 -18.23 -46.63 -43.14 -53.04 -7.91 -2.02 -7.63 -2.02 -43.28 -2.27 l-32.93 -0.21 -3.07 -0.94 c-3.73 -1.15 -5.05 -1.81 -7.74 -3.83 -3.59 -2.68 -6.31 -6.93 -7.53 -11.67 -0.84 -3.31 -0.91 -10.42 -0.14 -13.49 0.77 -3.03 2.72 -6.80 4.60 -8.89 3.14 -3.52 6.31 -5.33 12.16 -7.04 l2.75 -0.80 61.30 -0.17 61.26 -0.17 -12.51 -16.73 c-6.90 -9.20 -12.79 -17.15 -13.14 -17.70 l-0.63 -0.94 -46.87 0 c-30.56 0 -48.02 0.14 -50.22 0.38 -7.42 0.80 -16.59 3.35 -22.06 6.10 -15.82 7.95 -26.55 22.55 -30.35 41.26 -0.70 3.45 -0.80 5.05 -0.80 11.50 0 6.41 0.10 8.05 0.80 11.40 4.53 22.41 20.39 39.24 42.41 45.02 7.25 1.92 6.62 1.88 42.17 2.13 32.62 0.21 33.14 0.21 35.82 0.98 6.73 1.88 11.81 5.82 14.50 11.26 2.06 4.25 2.58 6.62 2.58 11.99 0 7.74 -1.71 12.27 -6.55 17.08 -3.55 3.59 -7.21 5.54 -12.20 6.55 -1.12 0.24 -17.81 0.42 -46.35 0.49 l-44.64 0.10 -11.47 12.48 c-6.34 6.83 -13.38 14.46 -15.68 16.97 -2.30 2.47 -4.39 4.81 -4.67 5.16 -0.45 0.56 2.47 0.59 60.46 0.59 58.82 0 61.09 -0.03 65.13 -0.70z m69 -29.10 l20.49 -29.80 1.46 0 1.43 0 9.65 12.82 c14.74 19.55 34.36 45.44 34.99 46.14 0.52 0.59 1.92 0.63 21.78 0.63 11.64 0 21.19 -0.10 21.19 -0.21 0 -0.31 -12.34 -16.87 -35.23 -47.36 -29.52 -39.31 -31.68 -42.17 -32.27 -42.27 -0.80 -0.21 -0.38 -2.93 0.66 -4.32 0.87 -1.15 5.19 -7.42 15.79 -22.76 3.03 -4.39 7.60 -10.98 10.11 -14.64 2.54 -3.62 8.61 -12.41 13.49 -19.52 4.88 -7.07 12.89 -18.68 17.77 -25.79 4.88 -7.07 10.70 -15.51 12.93 -18.75 l4.04 -5.82 -20.98 0.07 -20.98 0.10 -3.14 4.53 c-5.05 7.21 -14.53 20.91 -20.77 29.93 -3.14 4.57 -6.66 9.65 -7.84 11.33 -1.15 1.64 -5.92 8.50 -10.59 15.19 -13.66 19.62 -12.23 17.77 -13.66 17.77 -1.36 0 -1.60 -0.28 -14.92 -17.88 l-4.01 -5.30 -53.32 0 c-29.31 0 -53.67 -0.10 -54.08 -0.21 -0.45 -0.14 -1.08 -0.91 -1.67 -2.06 -1.08 -2.27 -3.10 -4.15 -5.65 -5.30 -3.45 -1.57 -7.56 -0.59 -10.70 2.51 -2.30 2.30 -3.14 4.36 -3.14 7.49 -0.03 3 0.66 4.63 2.93 7.11 2.51 2.72 7 4.25 9.83 3.31 2.47 -0.80 4.50 -2.40 6.20 -4.91 l1.57 -2.37 29.80 0 c16.38 0 31.99 -0.10 34.67 -0.21 l4.91 -0.24 13.90 18.61 c7.63 10.25 15.93 21.29 18.37 24.57 5.40 7.25 5.44 7.35 2.65 10.84 l-1.78 2.27 1.08 4.43 c1.71 6.83 2.20 10.66 2.40 19.03 0.14 5.78 0.03 8.85 -0.38 12.51 -2.06 17.81 -9.23 33.28 -21.08 45.62 l-2.58 2.68 2.09 0 2.09 0 20.49 -29.80z m-198.46 -20.14 c2.58 -0.94 5.82 -4.18 6.97 -6.93 l0.84 -2.02 40.01 0 c37.81 0 40.04 0.03 40.25 0.63 1.18 3.52 4.11 6.83 7.32 8.36 1.71 0.80 2.51 0.94 4.98 0.94 3.69 0 6.10 -1.01 8.71 -3.62 3.97 -3.97 5.05 -9.06 2.93 -13.63 -1.88 -3.97 -4.46 -6.31 -8.54 -7.67 -2.86 -0.98 -5.19 -0.77 -8.15 0.66 -2.79 1.39 -5.26 3.87 -6.52 6.52 -0.87 1.88 -1.15 2.20 -2.13 2.33 -1.36 0.24 -78.93 0.10 -79.07 -0.10 -0.07 -0.10 -0.52 -1.01 -0.98 -2.02 -0.87 -1.92 -3.59 -4.81 -5.51 -5.78 -0.59 -0.31 -1.95 -0.80 -3.03 -1.08 -4.95 -1.29 -10.80 1.92 -13.49 7.39 -2.13 4.32 -1.29 8.75 2.37 12.68 1.99 2.09 3.83 3.24 6.41 3.94 2.20 0.59 3.83 0.45 6.62 -0.59z m221.22 -90.47 l1.46 -2.06 0 -44.22 0 -44.26 1.39 -0.42 c0.80 -0.24 2.23 -1.18 3.42 -2.30 4.01 -3.69 5.16 -8.50 3.10 -12.89 -2.30 -4.91 -7.56 -8.08 -11.95 -7.21 -5.92 1.22 -10.52 6.66 -10.18 12.09 0.24 3.90 3.24 8.26 6.90 10.04 l1.64 0.77 0.21 8.19 c0.14 4.50 0.24 24.78 0.24 45.06 l0 36.87 0.91 1.22 c0.52 0.66 1.01 1.18 1.15 1.18 0.10 0 0.87 -0.94 1.71 -2.06z m-21.54 -37.92 l0 -17.01 -4.63 -5.09 c-2.51 -2.79 -7.74 -8.50 -11.57 -12.68 -10.35 -11.29 -10.28 -11.22 -10.28 -12.44 0 -0.56 0.31 -2.13 0.73 -3.45 0.63 -2.09 0.70 -2.65 0.35 -4.04 -0.94 -3.62 -3.28 -6.52 -6.62 -8.05 -4.84 -2.23 -11.19 0.87 -13.31 6.52 -1.74 4.67 0.91 10.07 6.20 12.48 2.02 0.94 3.03 1.01 6.90 0.63 l2.44 -0.24 4.36 4.81 c2.40 2.65 7.91 8.71 12.30 13.49 l7.91 8.64 0 13.66 0.03 13.66 2.51 3.03 c1.36 1.67 2.54 3.07 2.61 3.07 0.03 0 0.07 -7.63 0.07 -16.97z m42.65 6.55 l1.95 -2.61 0 -11.71 0 -11.74 3.24 -3.45 c3.80 -4.08 10.11 -10.98 13.97 -15.26 l2.79 -3.10 3.07 0.24 c3.55 0.28 5.19 -0.24 7.21 -2.27 1.36 -1.32 2.82 -4.25 2.82 -5.58 0 -2.79 -2.37 -6.38 -5.26 -7.81 -3.21 -1.64 -6.34 -0.87 -9.13 2.27 -1.95 2.16 -2.61 4.25 -1.99 6.34 0.24 0.84 0.49 2.20 0.59 3.07 0.14 1.50 0.07 1.64 -1.71 3.48 -2.89 2.93 -15.51 16.59 -17.98 19.38 l-2.16 2.51 0 14.74 c0 9.27 0.14 14.60 0.31 14.43 0.21 -0.21 1.22 -1.50 2.27 -2.93z"/>
  <path d="M21.95 230.59 c-1.85 -0.87 -2.79 -1.78 -3.66 -3.48 -1.12 -2.27 -1.22 -6.24 -0.21 -8.47 1.36 -2.96 4.70 -4.60 8.78 -4.22 2.75 0.24 4.88 1.50 6.13 3.66 0.87 1.46 0.98 1.99 0.98 4.60 -0.03 4.18 -1.36 6.55 -4.43 7.84 -1.53 0.63 -6.27 0.66 -7.60 0.07z"/>
  <path d="M125.87 230.31 c-2.86 -1.43 -4.25 -4.01 -4.25 -7.84 0 -2.72 0.45 -4.22 1.78 -5.82 1.71 -2.06 3.48 -2.82 6.76 -2.82 2.27 -0.03 3.10 0.14 4.46 0.80 3.31 1.60 4.88 5.37 4.15 9.76 -0.45 2.79 -1.78 4.74 -3.87 5.85 -2.13 1.12 -6.83 1.15 -9.03 0.07z"/>
  <path d="M246.97 49.48 c-1.60 -0.49 -3.24 -1.95 -4.08 -3.66 -0.66 -1.32 -0.73 -2.06 -0.66 -4.50 0.10 -2.44 0.28 -3.10 1.12 -4.32 1.43 -2.16 3.28 -3 6.69 -3 3.42 0 5.26 0.84 6.69 3 0.91 1.32 0.98 1.71 0.98 4.81 0 3.14 -0.07 3.45 -1.01 4.81 -1.85 2.68 -6.13 3.94 -9.72 2.86z"/>
  <path d="M190.27 58.44 c-2.13 -1.12 -2.79 -2.54 -2.79 -6.03 0 -3.38 0.70 -4.74 3.14 -5.99 1.95 -1.01 5.05 -0.94 7.14 0.14 4.01 2.09 4.01 9.65 0 11.88 -1.95 1.12 -5.40 1.12 -7.49 0z"/>
 </g>
 <g fill="#0c62aa">
  <path d="M30.74 284.75 c0.10 -0.35 6.76 -7.63 23.73 -25.96 l10 -10.84 44.71 -0.21 c28.16 -0.14 45.30 -0.31 46.42 -0.56 4.98 -1.01 8.64 -2.96 12.20 -6.55 4.63 -4.60 6.55 -9.41 6.52 -16.20 -0.03 -4.36 -0.59 -6.80 -2.54 -10.77 -2.65 -5.40 -7.77 -9.37 -14.50 -11.26 -2.68 -0.77 -3.21 -0.77 -35.82 -0.98 -28.72 -0.17 -33.52 -0.28 -36.24 -0.80 -15.58 -2.86 -27.81 -9.93 -36.73 -21.15 -9.27 -11.64 -13.38 -25.33 -12.51 -41.89 1.12 -21.57 12.93 -40.35 31.26 -49.55 5.47 -2.75 14.64 -5.30 22.06 -6.10 2.23 -0.24 19.97 -0.38 51.30 -0.38 45.30 0 47.95 0.03 48.27 0.63 0.17 0.31 6.38 8.68 13.77 18.54 7.39 9.86 13.45 18.05 13.45 18.19 0 0.14 -27.88 0.31 -61.93 0.35 l-61.96 0.10 -2.75 0.80 c-7.74 2.23 -12.23 5.65 -15.02 11.36 -1.67 3.42 -2.27 6.03 -2.27 10 0 7.28 3 13.73 8.19 17.63 2.68 2.02 4.01 2.68 7.74 3.83 l3.07 0.94 32.93 0.21 c35.65 0.24 35.37 0.24 43.28 2.27 25.13 6.48 40.88 26.03 43.18 53.60 0.63 7.81 -0.63 18.54 -3.03 25.68 -1.05 3.07 -4.25 9.86 -5.82 12.37 -3.59 5.78 -10.52 12.96 -16.10 16.73 -2.51 1.71 -7.56 4.43 -10.28 5.54 -5.72 2.30 -8.15 2.96 -14.81 4.04 -4.04 0.66 -6.34 0.70 -67.01 0.70 -38.96 0 -62.80 -0.14 -62.73 -0.31z"/>
  <path d="M201.08 284.78 c0 -0.14 1.18 -1.43 2.65 -2.86 15.54 -15.33 23.70 -36.03 23.03 -58.72 -0.21 -7.53 -0.84 -11.92 -2.54 -18.54 -0.66 -2.54 -1.18 -4.88 -1.18 -5.16 0 -0.31 0.87 -1.64 1.92 -2.93 1.05 -1.32 1.92 -2.51 1.92 -2.65 0 -0.24 -2.47 -3.59 -24.78 -33.42 l-11.71 -15.65 -33.77 0.07 c-30.77 0.03 -33.80 0.10 -34.12 0.63 -0.17 0.31 -1.05 1.53 -1.92 2.68 -2.89 3.90 -7.32 5.30 -12.20 3.83 -5.05 -1.50 -8.02 -5.23 -8.29 -10.49 -0.24 -4.74 1.36 -8.26 4.95 -10.73 5.78 -3.94 13.77 -1.95 16.76 4.18 0.59 1.15 1.22 1.92 1.67 2.06 0.42 0.10 24.78 0.21 54.08 0.21 l53.32 0 4.15 5.51 c13.24 17.46 13.59 17.88 14.18 17.22 0.31 -0.31 2.68 -3.66 5.26 -7.39 2.58 -3.73 7.49 -10.80 10.91 -15.68 3.45 -4.88 7.07 -10.14 8.12 -11.67 1.05 -1.53 5.40 -7.81 9.65 -13.94 4.25 -6.13 10.45 -15.05 13.77 -19.86 3.31 -4.77 6.24 -8.99 6.55 -9.30 0.49 -0.59 2.02 -0.63 23 -0.63 19.13 0 22.41 0.07 22.27 0.49 -0.10 0.28 -2.20 3.38 -4.63 6.90 -2.44 3.48 -8.43 12.20 -13.31 19.27 -23.07 33.45 -26.97 39.13 -31.26 45.30 -2.51 3.66 -7.07 10.25 -10.11 14.64 -9.13 13.24 -14.88 21.54 -15.68 22.65 -1.18 1.60 -1.29 2.16 -0.42 2.40 l0.73 0.17 -0.73 0.80 c-0.59 0.70 -9.27 13.17 -19.10 27.53 -2.33 3.42 -2.89 4.04 -3.48 3.90 -0.63 -0.17 -3.48 3.80 -21.26 29.62 l-20.49 29.83 -3.94 0 c-2.20 0 -3.97 -0.10 -3.97 -0.28z"/>
 </g>
 <g fill="#acacab" stroke="#acacab" stroke-width="0.348">
  <path d="M295.41 284.43 c-0.63 -0.70 -20.25 -26.59 -35.02 -46.17 -7.46 -9.93 -9.79 -12.79 -10.25 -12.65 -0.49 0.10 -0.42 -0.14 0.35 -1.12 0.56 -0.73 2.37 -3.31 4.08 -5.82 13.63 -19.97 17.70 -25.65 18.30 -25.54 0.70 0.10 2.20 2.09 32.37 42.27 23.59 31.43 36.21 48.40 36.49 49.10 0.21 0.49 -2.09 0.56 -22.76 0.56 -21.57 0 -23.03 -0.03 -23.56 -0.63z"/>
  <path d="M210.59 225.30 c0 -1.15 0.07 -1.57 0.14 -0.94 0.07 0.63 0.07 1.57 0 2.09 -0.07 0.52 -0.14 0 -0.14 -1.15z"/>
  <path d="M268.68 102 c0 -17.04 0.07 -18.02 1.12 -18.02 0.14 0 0.28 7.53 0.28 16.73 0 16.31 -0.14 18.47 -1.12 18.47 -0.14 0 -0.28 -7.74 -0.28 -17.18z"/>
  <path d="M273.56 87.47 c0 -0.17 -0.17 -0.35 -0.38 -0.35 -0.24 0 -0.87 -0.45 -1.39 -1.05 -0.77 -0.77 -1.01 -1.39 -1.01 -2.37 0 -1.22 0.52 -1.85 8.47 -10.38 4.63 -4.98 8.78 -9.41 9.20 -9.83 0.73 -0.70 1.85 -0.73 1.85 -0.03 0 0.17 0.17 0.31 0.35 0.31 0.63 0 2.02 1.74 2.27 2.82 0.28 1.29 0.10 1.50 -8.57 10.91 -3.52 3.80 -7.04 7.67 -7.81 8.61 -0.91 1.05 -1.67 1.67 -2.16 1.67 -0.45 0.03 -0.80 -0.10 -0.80 -0.31z"/>
 </g>
 <g fill="#858584">
  <path d="M127.82 236.27 c-4.88 -0.87 -9.23 -4.67 -10.84 -9.48 -0.21 -0.59 -2.40 -0.63 -39.20 -0.63 l-38.96 0 -0.84 2.02 c-1.15 2.79 -4.36 5.96 -7.14 7.04 -2.89 1.15 -7.18 1.15 -10.04 0.03 -2.82 -1.12 -5.85 -3.97 -7.28 -6.93 -1.05 -2.13 -1.15 -2.58 -1.15 -5.65 0 -3.07 0.10 -3.52 1.15 -5.65 4.11 -8.36 14.60 -10.45 21.29 -4.25 1.36 1.25 2.30 2.51 2.86 3.80 0.45 1.05 1.08 1.92 1.36 1.95 1.67 0.10 75.97 0.17 76.74 0.03 0.77 -0.10 1.15 -0.56 1.95 -2.30 1.25 -2.68 3.73 -5.16 6.62 -6.55 5.37 -2.65 12.37 -1.18 16.45 3.42 0.63 0.73 1.64 2.37 2.23 3.62 0.98 2.06 1.08 2.58 1.08 5.75 0 3.03 -0.10 3.73 -0.94 5.47 -1.22 2.58 -2.47 4.25 -4.39 5.72 -2.86 2.16 -7.28 3.21 -10.94 2.58z m-99.32 -6.80 c5.33 -2.27 5.96 -10 1.01 -12.86 -1.99 -1.15 -3.45 -1.39 -5.44 -0.91 -6.83 1.64 -7.56 10.80 -1.08 13.83 1.25 0.59 4.01 0.52 5.51 -0.07z m105.21 -0.21 c5.44 -2.61 5.37 -10.94 -0.14 -13.59 -5.78 -2.82 -12.23 2.51 -10.59 8.75 1.22 4.57 6.45 6.93 10.73 4.84z"/>
  <path d="M247.88 146.22 l-1.46 -1.88 -0.07 -38.26 c-0.03 -21.08 -0.14 -41.37 -0.24 -45.09 l-0.17 -6.80 -1.60 -0.77 c-2.13 -1.01 -4.70 -3.62 -5.78 -5.85 -4.04 -8.26 1.36 -17.77 10.56 -18.54 5.33 -0.45 10.18 2.40 12.51 7.39 0.87 1.85 0.98 2.51 0.98 5.40 0 2.93 -0.14 3.59 -1.01 5.51 -1.22 2.65 -4.39 5.75 -6.48 6.38 l-1.39 0.42 0 44.22 0 44.22 -1.99 2.79 c-1.12 1.50 -2.09 2.75 -2.20 2.75 -0.10 0 -0.84 -0.84 -1.64 -1.88z m5.02 -98.31 c1.12 -0.56 2.13 -1.43 2.75 -2.33 0.87 -1.22 1.01 -1.78 1.01 -3.76 0 -1.95 -0.14 -2.54 -0.98 -3.76 -2.58 -3.90 -8.71 -3.94 -11.29 -0.03 -1.92 2.93 -1.25 7.14 1.46 9.23 2.27 1.74 4.46 1.92 7.04 0.66z"/>
  <path d="M226.97 121.93 l-3.55 -4.32 -0.03 -13.66 0 -13.66 -7.91 -8.64 c-4.39 -4.77 -9.90 -10.84 -12.30 -13.49 l-4.36 -4.81 -1.39 0.28 c-7.81 1.64 -14.32 -3.07 -14.74 -10.63 -0.10 -2.13 0 -3.03 0.59 -4.60 1.43 -3.76 4.67 -6.41 8.82 -7.28 8.33 -1.67 15.51 6.62 12.86 14.95 -0.38 1.25 -0.59 2.44 -0.45 2.68 0.21 0.42 4.39 4.98 18.57 20.49 3 3.28 5.92 6.52 6.55 7.21 l1.08 1.29 -0.07 19.24 -0.10 19.24 -3.55 -4.29z m-30.25 -64.54 c1.57 -0.87 2.96 -3.21 2.96 -4.91 0 -1.39 -1.22 -3.87 -2.27 -4.53 -0.45 -0.31 -1.53 -0.73 -2.37 -0.98 -1.39 -0.35 -1.71 -0.31 -3.24 0.45 -2.27 1.12 -3.28 2.65 -3.28 4.98 0 2.37 0.91 4.01 2.79 4.98 1.88 1.01 3.62 1.01 5.40 0z"/>
  <path d="M268.96 101.69 l-0.10 -16.83 1.32 -1.57 c0.77 -0.87 1.43 -1.57 1.53 -1.57 0.14 0 0.24 0.56 0.28 1.29 0.03 1.32 0.66 2.40 1.32 2.27 0.24 -0.03 0.38 0.14 0.35 0.38 -0.07 0.21 0.14 0.42 0.42 0.42 0.28 0 0.52 0.14 0.52 0.35 0 0.17 0.14 0.31 0.35 0.24 0.21 -0.03 0.35 4.36 0.38 11.88 l0.03 11.95 -0.80 1.15 c-3.14 4.32 -5.05 6.80 -5.26 6.83 -0.14 0 -0.31 -7.56 -0.35 -16.80z"/>
  <path d="M291.72 68.23 c0.14 -1.05 -0.07 -1.64 -0.91 -2.51 -0.45 -0.49 -0.94 -0.91 -1.05 -0.91 -0.28 0 -1.22 -0.94 -1.22 -1.18 0 -0.10 0.49 -0.73 1.08 -1.39 l1.05 -1.22 -0.52 -1.60 c-1.18 -3.42 -0.52 -6.66 1.78 -9.23 2.06 -2.30 4.18 -3.28 7.07 -3.28 8.50 0.03 12.62 10.63 6.45 16.62 -1.99 1.92 -3.80 2.47 -7.28 2.23 l-2.89 -0.21 -1.53 1.57 c-1.53 1.57 -2.13 1.88 -2.02 1.12z"/>
 </g>
</svg>